<?xml version="1.0" encoding="utf-8"?>
<!-- Generator: Adobe Illustrator 17.1.0, SVG Export Plug-In . SVG Version: 6.00 Build 0)  -->
<!DOCTYPE svg PUBLIC "-//W3C//DTD SVG 1.1//EN" "http://www.w3.org/Graphics/SVG/1.1/DTD/svg11.dtd">
<svg version="1.1" id="Layer_1" xmlns="http://www.w3.org/2000/svg" xmlns:xlink="http://www.w3.org/1999/xlink" x="0px" y="0px"
	 viewBox="0 0 220 50" enable-background="new 0 0 220 50" xml:space="preserve">
<g>
	<g>
		<g>
			<path fill="#6C7B7C" d="M15.9,42.9c0,1.4-0.4,2.4-1.1,3.1s-1.8,1.1-3.2,1.1H9.3v-8.3h2.5c1.3,0,2.3,0.4,3,1.1
				C15.6,40.6,15.9,41.6,15.9,42.9z M14.9,43c0-1.1-0.3-1.9-0.8-2.4c-0.5-0.5-1.3-0.8-2.4-0.8h-1.4v6.6h1.2c1.1,0,2-0.3,2.6-0.8
				C14.6,44.9,14.9,44.1,14.9,43z"/>
			<path fill="#6C7B7C" d="M17.6,39.3c0-0.2,0.1-0.4,0.2-0.5c0.1-0.1,0.2-0.1,0.4-0.1c0.1,0,0.3,0.1,0.4,0.2
				c0.1,0.1,0.2,0.3,0.2,0.5c0,0.2-0.1,0.4-0.2,0.5s-0.2,0.2-0.4,0.2c-0.2,0-0.3-0.1-0.4-0.2C17.6,39.6,17.6,39.5,17.6,39.3z
				 M18.6,47.1h-0.9v-6.2h0.9V47.1z"/>
			<path fill="#6C7B7C" d="M23.2,47.3c-0.9,0-1.6-0.3-2.2-0.8c-0.5-0.6-0.8-1.3-0.8-2.3c0-1,0.2-1.8,0.7-2.4c0.5-0.6,1.2-0.9,2-0.9
				c0.8,0,1.4,0.3,1.8,0.8c0.5,0.5,0.7,1.2,0.7,2v0.6h-4.3c0,0.7,0.2,1.3,0.6,1.7c0.3,0.4,0.8,0.6,1.5,0.6c0.7,0,1.3-0.1,2-0.4v0.8
				c-0.3,0.1-0.6,0.2-0.9,0.3C24,47.2,23.6,47.3,23.2,47.3z M22.9,41.6c-0.5,0-0.9,0.2-1.2,0.5c-0.3,0.3-0.5,0.8-0.5,1.3h3.2
				c0-0.6-0.1-1-0.4-1.4C23.8,41.8,23.4,41.6,22.9,41.6z"/>
			<path fill="#6C7B7C" d="M33,40.8c0.8,0,1.4,0.3,1.9,0.8c0.5,0.6,0.7,1.3,0.7,2.4c0,1-0.2,1.8-0.7,2.4c-0.5,0.6-1.1,0.8-1.9,0.8
				c-0.4,0-0.8-0.1-1.1-0.2c-0.3-0.1-0.6-0.4-0.8-0.7H31l-0.2,0.8h-0.7v-8.8H31v2.1c0,0.5,0,0.9,0,1.3h0
				C31.5,41.1,32.1,40.8,33,40.8z M32.8,41.6c-0.6,0-1.1,0.2-1.4,0.6c-0.3,0.4-0.4,1-0.4,1.9c0,0.9,0.1,1.5,0.4,1.9
				c0.3,0.4,0.8,0.6,1.4,0.6c0.6,0,1-0.2,1.3-0.6c0.3-0.4,0.4-1,0.4-1.8c0-0.8-0.1-1.4-0.4-1.8C33.9,41.8,33.4,41.6,32.8,41.6z"/>
			<path fill="#6C7B7C" d="M39.8,47.3c-0.9,0-1.6-0.3-2.2-0.8c-0.5-0.6-0.8-1.3-0.8-2.3c0-1,0.2-1.8,0.7-2.4c0.5-0.6,1.2-0.9,2-0.9
				c0.8,0,1.4,0.3,1.8,0.8c0.5,0.5,0.7,1.2,0.7,2v0.6h-4.3c0,0.7,0.2,1.3,0.6,1.7c0.3,0.4,0.8,0.6,1.5,0.6c0.7,0,1.3-0.1,2-0.4v0.8
				c-0.3,0.1-0.6,0.2-0.9,0.3C40.6,47.2,40.2,47.3,39.8,47.3z M39.6,41.6c-0.5,0-0.9,0.2-1.2,0.5c-0.3,0.3-0.5,0.8-0.5,1.3h3.2
				c0-0.6-0.1-1-0.4-1.4C40.4,41.8,40,41.6,39.6,41.6z"/>
			<path fill="#6C7B7C" d="M47.7,45.4c0,0.6-0.2,1-0.6,1.3c-0.4,0.3-1,0.5-1.8,0.5c-0.8,0-1.5-0.1-1.9-0.4V46c0.3,0.2,0.6,0.3,1,0.4
				c0.3,0.1,0.7,0.1,1,0.1c0.5,0,0.9-0.1,1.1-0.2c0.3-0.2,0.4-0.4,0.4-0.7c0-0.2-0.1-0.4-0.3-0.6c-0.2-0.2-0.6-0.4-1.2-0.6
				c-0.6-0.2-1-0.4-1.2-0.6c-0.2-0.2-0.4-0.3-0.5-0.5c-0.1-0.2-0.2-0.4-0.2-0.7c0-0.5,0.2-0.9,0.6-1.2c0.4-0.3,1-0.4,1.7-0.4
				c0.7,0,1.3,0.1,2,0.4L47.2,42c-0.6-0.3-1.2-0.4-1.7-0.4c-0.4,0-0.8,0.1-1,0.2c-0.2,0.1-0.3,0.3-0.3,0.6c0,0.2,0,0.3,0.1,0.4
				c0.1,0.1,0.2,0.2,0.4,0.3c0.2,0.1,0.5,0.3,1.1,0.5c0.7,0.3,1.2,0.5,1.5,0.8C47.6,44.7,47.7,45,47.7,45.4z"/>
			<path fill="#6C7B7C" d="M51.2,46.5c0.2,0,0.3,0,0.5,0c0.2,0,0.3-0.1,0.4-0.1v0.7c-0.1,0-0.3,0.1-0.5,0.1c-0.2,0-0.4,0-0.5,0
				c-1.2,0-1.8-0.6-1.8-1.9v-3.7h-0.9v-0.5l0.9-0.4l0.4-1.3h0.5v1.4H52v0.7h-1.8v3.7c0,0.4,0.1,0.7,0.3,0.9
				C50.7,46.4,50.9,46.5,51.2,46.5z"/>
			<path fill="#6C7B7C" d="M55.9,47.3c-0.9,0-1.6-0.3-2.2-0.8c-0.5-0.6-0.8-1.3-0.8-2.3c0-1,0.2-1.8,0.7-2.4c0.5-0.6,1.2-0.9,2-0.9
				c0.8,0,1.4,0.3,1.8,0.8c0.5,0.5,0.7,1.2,0.7,2v0.6h-4.3c0,0.7,0.2,1.3,0.6,1.7c0.3,0.4,0.8,0.6,1.5,0.6c0.7,0,1.3-0.1,2-0.4v0.8
				c-0.3,0.1-0.6,0.2-0.9,0.3C56.7,47.2,56.4,47.3,55.9,47.3z M55.7,41.6c-0.5,0-0.9,0.2-1.2,0.5c-0.3,0.3-0.5,0.8-0.5,1.3h3.2
				c0-0.6-0.1-1-0.4-1.4C56.5,41.8,56.2,41.6,55.7,41.6z"/>
			<path fill="#6C7B7C" d="M64.1,47.1v-4c0-0.5-0.1-0.9-0.3-1.1c-0.2-0.2-0.6-0.4-1.1-0.4c-0.6,0-1.1,0.2-1.4,0.5
				c-0.3,0.4-0.5,0.9-0.5,1.7v3.3h-0.9v-6.2h0.8l0.2,0.8h0c0.2-0.3,0.5-0.5,0.8-0.7c0.3-0.2,0.7-0.3,1.2-0.3c0.7,0,1.3,0.2,1.7,0.5
				c0.4,0.4,0.6,0.9,0.6,1.7v4H64.1z"/>
			<path fill="#6C7B7C" d="M76.7,42.9c0,1.4-0.4,2.4-1.1,3.1c-0.7,0.7-1.8,1.1-3.2,1.1h-2.3v-8.3h2.5c1.3,0,2.3,0.4,3,1.1
				C76.3,40.6,76.7,41.6,76.7,42.9z M75.7,43c0-1.1-0.3-1.9-0.8-2.4c-0.5-0.5-1.3-0.8-2.4-0.8h-1.4v6.6h1.2c1.1,0,2-0.3,2.6-0.8
				C75.4,44.9,75.7,44.1,75.7,43z"/>
			<path fill="#6C7B7C" d="M82.2,47.1L82,46.3h0c-0.3,0.4-0.6,0.7-0.9,0.8c-0.3,0.1-0.7,0.2-1.2,0.2c-0.6,0-1.1-0.2-1.4-0.5
				c-0.3-0.3-0.5-0.8-0.5-1.4c0-1.3,1-1.9,3-2l1.1,0V43c0-0.5-0.1-0.8-0.3-1.1c-0.2-0.2-0.5-0.3-1-0.3c-0.5,0-1.1,0.2-1.8,0.5
				l-0.3-0.7c0.3-0.2,0.6-0.3,1-0.4c0.4-0.1,0.7-0.1,1.1-0.1c0.7,0,1.3,0.2,1.6,0.5c0.4,0.3,0.5,0.9,0.5,1.6v4.2H82.2z M80.1,46.5
				c0.6,0,1-0.2,1.4-0.5c0.3-0.3,0.5-0.8,0.5-1.3v-0.6l-0.9,0c-0.7,0-1.3,0.1-1.6,0.3c-0.3,0.2-0.5,0.5-0.5,1c0,0.3,0.1,0.6,0.3,0.8
				C79.4,46.4,79.7,46.5,80.1,46.5z"/>
			<path fill="#6C7B7C" d="M86.9,46.5c0.2,0,0.3,0,0.5,0c0.2,0,0.3-0.1,0.4-0.1v0.7c-0.1,0-0.3,0.1-0.5,0.1c-0.2,0-0.4,0-0.5,0
				c-1.2,0-1.8-0.6-1.8-1.9v-3.7H84v-0.5l0.9-0.4l0.4-1.3h0.5v1.4h1.8v0.7h-1.8v3.7c0,0.4,0.1,0.7,0.3,0.9
				C86.3,46.4,86.5,46.5,86.9,46.5z"/>
			<path fill="#6C7B7C" d="M88.9,39.3c0-0.2,0.1-0.4,0.2-0.5c0.1-0.1,0.2-0.1,0.4-0.1c0.1,0,0.3,0.1,0.4,0.2
				c0.1,0.1,0.2,0.3,0.2,0.5c0,0.2-0.1,0.4-0.2,0.5c-0.1,0.1-0.2,0.2-0.4,0.2c-0.2,0-0.3-0.1-0.4-0.2C88.9,39.6,88.9,39.5,88.9,39.3
				z M89.9,47.1h-0.9v-6.2h0.9V47.1z"/>
			<path fill="#6C7B7C" d="M96.1,47.1v-4c0-0.5-0.1-0.9-0.3-1.1c-0.2-0.2-0.6-0.4-1.1-0.4c-0.6,0-1.1,0.2-1.4,0.5
				c-0.3,0.4-0.5,0.9-0.5,1.7v3.3h-0.9v-6.2h0.8l0.2,0.8h0c0.2-0.3,0.5-0.5,0.8-0.7c0.3-0.2,0.7-0.3,1.2-0.3c0.7,0,1.3,0.2,1.7,0.5
				c0.4,0.4,0.6,0.9,0.6,1.7v4H96.1z"/>
			<path fill="#6C7B7C" d="M104.1,40.9v0.6l-1.1,0.1c0.1,0.1,0.2,0.3,0.3,0.5c0.1,0.2,0.1,0.5,0.1,0.7c0,0.6-0.2,1.1-0.6,1.5
				c-0.4,0.4-1,0.5-1.7,0.5c-0.2,0-0.4,0-0.5,0c-0.4,0.2-0.6,0.5-0.6,0.8c0,0.2,0.1,0.3,0.2,0.4c0.1,0.1,0.4,0.1,0.7,0.1h1.1
				c0.7,0,1.2,0.1,1.5,0.4c0.4,0.3,0.5,0.7,0.5,1.2c0,0.7-0.3,1.2-0.8,1.6c-0.6,0.4-1.4,0.5-2.4,0.5c-0.8,0-1.4-0.2-1.9-0.5
				c-0.4-0.3-0.7-0.7-0.7-1.3c0-0.4,0.1-0.7,0.4-1c0.2-0.3,0.6-0.5,1-0.6c-0.2-0.1-0.3-0.2-0.4-0.3C99.1,46.2,99,46,99,45.8
				c0-0.2,0.1-0.4,0.2-0.6c0.1-0.2,0.3-0.3,0.6-0.5c-0.3-0.1-0.6-0.4-0.8-0.7c-0.2-0.3-0.3-0.7-0.3-1.1c0-0.7,0.2-1.2,0.6-1.6
				c0.4-0.4,1-0.6,1.7-0.6c0.3,0,0.6,0,0.9,0.1H104.1z M99.1,48.2c0,0.3,0.1,0.6,0.4,0.8c0.3,0.2,0.7,0.3,1.2,0.3
				c0.8,0,1.4-0.1,1.8-0.4c0.4-0.2,0.6-0.6,0.6-1c0-0.3-0.1-0.6-0.3-0.7c-0.2-0.1-0.6-0.2-1.2-0.2h-1.1c-0.4,0-0.8,0.1-1,0.3
				C99.2,47.5,99.1,47.8,99.1,48.2z M99.6,42.9c0,0.4,0.1,0.8,0.4,1c0.2,0.2,0.6,0.3,1,0.3c0.9,0,1.4-0.4,1.4-1.3
				c0-0.9-0.5-1.4-1.4-1.4c-0.4,0-0.8,0.1-1,0.4C99.7,42.1,99.6,42.5,99.6,42.9z"/>
			<path fill="#6C7B7C" d="M113.2,44.9c0,0.7-0.3,1.3-0.8,1.7c-0.5,0.4-1.2,0.6-2.2,0.6c-1,0-1.7-0.1-2.3-0.4v-0.9
				c0.3,0.1,0.7,0.3,1.1,0.3c0.4,0.1,0.8,0.1,1.2,0.1c0.6,0,1.1-0.1,1.4-0.4c0.3-0.2,0.5-0.6,0.5-1c0-0.3-0.1-0.5-0.2-0.7
				c-0.1-0.2-0.3-0.4-0.6-0.5c-0.3-0.2-0.7-0.3-1.2-0.5c-0.8-0.3-1.3-0.6-1.7-1c-0.3-0.4-0.5-0.9-0.5-1.5c0-0.6,0.2-1.1,0.7-1.5
				c0.5-0.4,1.1-0.6,1.9-0.6c0.8,0,1.6,0.2,2.3,0.5l-0.3,0.8c-0.7-0.3-1.3-0.4-2-0.4c-0.5,0-0.9,0.1-1.2,0.3
				c-0.3,0.2-0.4,0.5-0.4,0.9c0,0.3,0.1,0.5,0.2,0.7c0.1,0.2,0.3,0.4,0.5,0.5c0.3,0.2,0.6,0.3,1.2,0.5c0.9,0.3,1.5,0.6,1.8,1
				C113,43.9,113.2,44.4,113.2,44.9z"/>
			<path fill="#6C7B7C" d="M117.3,47.3c-0.9,0-1.6-0.3-2.2-0.8c-0.5-0.6-0.8-1.3-0.8-2.3c0-1,0.2-1.8,0.7-2.4c0.5-0.6,1.2-0.9,2-0.9
				c0.8,0,1.4,0.3,1.8,0.8c0.5,0.5,0.7,1.2,0.7,2v0.6h-4.3c0,0.7,0.2,1.3,0.6,1.7c0.3,0.4,0.8,0.6,1.5,0.6c0.7,0,1.3-0.1,2-0.4v0.8
				c-0.3,0.1-0.6,0.2-0.9,0.3C118.1,47.2,117.8,47.3,117.3,47.3z M117.1,41.6c-0.5,0-0.9,0.2-1.2,0.5c-0.3,0.3-0.5,0.8-0.5,1.3h3.2
				c0-0.6-0.1-1-0.4-1.4C117.9,41.8,117.6,41.6,117.1,41.6z"/>
			<path fill="#6C7B7C" d="M121.1,39.3c0-0.2,0.1-0.4,0.2-0.5c0.1-0.1,0.2-0.1,0.4-0.1c0.1,0,0.3,0.1,0.4,0.2
				c0.1,0.1,0.2,0.3,0.2,0.5c0,0.2-0.1,0.4-0.2,0.5c-0.1,0.1-0.2,0.2-0.4,0.2c-0.2,0-0.3-0.1-0.4-0.2
				C121.2,39.6,121.1,39.5,121.1,39.3z M122.2,47.1h-0.9v-6.2h0.9V47.1z"/>
			<path fill="#6C7B7C" d="M126.2,46.5c0.2,0,0.3,0,0.5,0c0.2,0,0.3-0.1,0.4-0.1v0.7c-0.1,0-0.3,0.1-0.5,0.1c-0.2,0-0.4,0-0.5,0
				c-1.2,0-1.8-0.6-1.8-1.9v-3.7h-0.9v-0.5l0.9-0.4l0.4-1.3h0.5v1.4h1.8v0.7h-1.8v3.7c0,0.4,0.1,0.7,0.3,0.9
				C125.6,46.4,125.8,46.5,126.2,46.5z"/>
			<path fill="#6C7B7C" d="M130.9,47.3c-0.9,0-1.6-0.3-2.2-0.8c-0.5-0.6-0.8-1.3-0.8-2.3c0-1,0.2-1.8,0.7-2.4c0.5-0.6,1.2-0.9,2-0.9
				c0.8,0,1.4,0.3,1.8,0.8c0.5,0.5,0.7,1.2,0.7,2v0.6h-4.3c0,0.7,0.2,1.3,0.6,1.7c0.3,0.4,0.8,0.6,1.5,0.6c0.7,0,1.3-0.1,2-0.4v0.8
				c-0.3,0.1-0.6,0.2-0.9,0.3C131.6,47.2,131.3,47.3,130.9,47.3z M130.6,41.6c-0.5,0-0.9,0.2-1.2,0.5c-0.3,0.3-0.5,0.8-0.5,1.3h3.2
				c0-0.6-0.1-1-0.4-1.4C131.5,41.8,131.1,41.6,130.6,41.6z"/>
			<path fill="#6C7B7C" d="M139,47.1v-4c0-0.5-0.1-0.9-0.3-1.1c-0.2-0.2-0.6-0.4-1.1-0.4c-0.6,0-1.1,0.2-1.4,0.5
				c-0.3,0.4-0.5,0.9-0.5,1.7v3.3h-0.9v-6.2h0.8l0.2,0.8h0c0.2-0.3,0.5-0.5,0.8-0.7c0.3-0.2,0.7-0.3,1.2-0.3c0.7,0,1.3,0.2,1.7,0.5
				c0.4,0.4,0.6,0.9,0.6,1.7v4H139z"/>
			<path fill="#6C7B7C" d="M147.7,41.7h-1.6v5.5h-0.9v-5.5H144v-0.4l1.1-0.3v-0.3c0-1.5,0.7-2.3,2-2.3c0.3,0,0.7,0.1,1.2,0.2
				l-0.2,0.8c-0.4-0.1-0.7-0.2-0.9-0.2c-0.4,0-0.6,0.1-0.8,0.4c-0.2,0.2-0.3,0.6-0.3,1.1v0.4h1.6V41.7z"/>
			<path fill="#6C7B7C" d="M149.7,40.9v4c0,0.5,0.1,0.9,0.3,1.1c0.2,0.2,0.6,0.4,1.1,0.4c0.6,0,1.1-0.2,1.4-0.5
				c0.3-0.4,0.4-0.9,0.4-1.7v-3.3h0.9v6.2h-0.8l-0.1-0.8H153c-0.2,0.3-0.5,0.5-0.8,0.7c-0.3,0.2-0.7,0.2-1.2,0.2
				c-0.8,0-1.3-0.2-1.7-0.5c-0.4-0.4-0.6-0.9-0.6-1.7v-4.1H149.7z M149.7,39.3c0-0.2,0-0.3,0.1-0.4c0.1-0.1,0.2-0.1,0.4-0.1
				c0.1,0,0.3,0,0.4,0.1c0.1,0.1,0.2,0.2,0.2,0.4c0,0.2-0.1,0.3-0.2,0.4c-0.1,0.1-0.2,0.1-0.4,0.1c-0.1,0-0.3,0-0.4-0.1
				C149.8,39.6,149.7,39.4,149.7,39.3z M151.9,39.3c0-0.2,0-0.3,0.1-0.4c0.1-0.1,0.2-0.1,0.4-0.1c0.1,0,0.3,0,0.4,0.1
				c0.1,0.1,0.2,0.2,0.2,0.4c0,0.2-0.1,0.3-0.2,0.4c-0.1,0.1-0.2,0.1-0.4,0.1c-0.1,0-0.3,0-0.4-0.1
				C151.9,39.6,151.9,39.4,151.9,39.3z"/>
			<path fill="#6C7B7C" d="M158.7,40.8c0.3,0,0.5,0,0.7,0.1l-0.1,0.9c-0.3-0.1-0.5-0.1-0.7-0.1c-0.5,0-0.9,0.2-1.3,0.6
				c-0.4,0.4-0.5,0.9-0.5,1.5v3.3h-0.9v-6.2h0.8l0.1,1.1h0c0.2-0.4,0.5-0.7,0.8-0.9C158,40.9,158.4,40.8,158.7,40.8z"/>
			<path fill="#6C7B7C" d="M170.4,42.9c0,1.4-0.4,2.4-1.1,3.1c-0.7,0.7-1.8,1.1-3.2,1.1h-2.3v-8.3h2.5c1.3,0,2.3,0.4,3,1.1
				C170.1,40.6,170.4,41.6,170.4,42.9z M169.4,43c0-1.1-0.3-1.9-0.8-2.4c-0.5-0.5-1.3-0.8-2.4-0.8h-1.4v6.6h1.2c1.1,0,2-0.3,2.6-0.8
				C169.1,44.9,169.4,44.1,169.4,43z"/>
			<path fill="#6C7B7C" d="M172,39.3c0-0.2,0.1-0.4,0.2-0.5c0.1-0.1,0.2-0.1,0.4-0.1c0.1,0,0.3,0.1,0.4,0.2c0.1,0.1,0.2,0.3,0.2,0.5
				c0,0.2-0.1,0.4-0.2,0.5s-0.2,0.2-0.4,0.2c-0.2,0-0.3-0.1-0.4-0.2C172.1,39.6,172,39.5,172,39.3z M173.1,47.1h-0.9v-6.2h0.9V47.1z
				"/>
			<path fill="#6C7B7C" d="M177.5,47.3c-0.9,0-1.6-0.3-2.1-0.8c-0.5-0.6-0.7-1.3-0.7-2.3c0-1,0.2-1.8,0.7-2.4
				c0.5-0.6,1.2-0.8,2.1-0.8c0.3,0,0.6,0,0.9,0.1c0.3,0.1,0.5,0.1,0.7,0.2l-0.3,0.8c-0.2-0.1-0.4-0.2-0.7-0.2
				c-0.2-0.1-0.5-0.1-0.7-0.1c-1.3,0-1.9,0.8-1.9,2.4c0,0.8,0.2,1.3,0.5,1.8c0.3,0.4,0.8,0.6,1.4,0.6c0.5,0,1-0.1,1.6-0.3v0.8
				C178.7,47.1,178.2,47.3,177.5,47.3z"/>
			<path fill="#6C7B7C" d="M184.8,47.1v-4c0-0.5-0.1-0.9-0.3-1.1c-0.2-0.2-0.6-0.4-1.1-0.4c-0.7,0-1.1,0.2-1.4,0.5
				c-0.3,0.4-0.4,0.9-0.4,1.7v3.2h-0.9v-8.8h0.9V41c0,0.3,0,0.6,0,0.8h0.1c0.2-0.3,0.4-0.5,0.8-0.7c0.3-0.2,0.7-0.3,1.2-0.3
				c0.8,0,1.3,0.2,1.7,0.5c0.4,0.4,0.6,0.9,0.6,1.7v4H184.8z"/>
		</g>
	</g>
	<g>
		<path fill="#6C7B7C" d="M114.4,35c-6.8,0-9.9-4.9-9.9-10.2c0-5.3,3.6-10.3,9.8-10.3c2,0,5.1,0.5,5.1,3.3c0,1-0.4,1.8-1.4,1.8
			c-1.7,0-1.7-0.7-3.2-0.7c-3.6,0-5,3.2-5,5.9c0,3,1.9,5.6,5.2,5.6c1.3,0,1.6-0.6,2.8-0.6c1.1,0,1.6,1,1.6,1.8
			C119.5,34.8,115.8,35,114.4,35z"/>
		<path fill="#6C7B7C" d="M137.7,33.7c-0.7,0.7-1.3,0.7-2,0.7c-0.9,0-2.5-0.3-2.5-2v-3.8c0-2.4-2.8-2.3-3.7-2.3
			c-1.1,0-3.7,0.2-3.7,2.3v3.8c0,1.7-1.8,2-2.5,2c-0.9,0-2.4-0.2-2.4-1.6V16.6c0-1.3,1.7-1.6,2.4-1.6c0.9,0,2.5,0.3,2.5,2v3
			c0,1.9,2.5,2.2,3.7,2.2c1.2,0,3.7-0.2,3.7-2.3v-3c0-1.7,1.6-2,2.5-2c0.8,0,2.4,0.3,2.4,1.5v16C138.1,32.9,137.9,33.5,137.7,33.7z"
			/>
		<path fill="#6C7B7C" d="M150.6,34.2c-1,0.3-3,0.3-4.8,0.3c-1.7,0-5.3,0.2-5.3-2.1V17.7c0-2.6,2.8-2.7,3.1-2.7h6c1.6,0,2,0.8,2,1.8
			c0,1.4-0.3,1.8-1.4,2.1c-1.3,0.3-3.5-0.1-4.4,1.2c-0.1,0.2-0.3,0.6-0.3,0.8c0,3.4,5.4,0.2,5.4,3.6c0,3.1-5.5,0.5-5.5,3.7
			c0,2.3,2.8,2.3,4.2,2.3c1.3,0,1.9,0.7,1.9,1.8C151.8,33,151.7,33.9,150.6,34.2z"/>
		<path fill="#6C7B7C" d="M162.8,35c-6.8,0-9.9-4.9-9.9-10.2c0-5.3,3.6-10.3,9.8-10.3c2,0,5.1,0.5,5.1,3.3c0,1-0.4,1.8-1.4,1.8
			c-1.7,0-1.7-0.7-3.2-0.7c-3.6,0-5,3.2-5,5.9c0,3,1.9,5.6,5.2,5.6c1.3,0,1.6-0.6,2.8-0.6c1.1,0,1.6,1,1.6,1.8
			C167.9,34.8,164.3,35,162.8,35z"/>
		<path fill="#6C7B7C" d="M183,34.4c-0.7,0-1.5,0-2.4-0.4c-0.7-0.4-1.4-1.5-2-2.2c-0.2-0.3-2.2-3.8-3.3-3.8c-1.2,0-1,1.3-1.1,1.7
			c-0.2,1,0.1,2.6-0.2,3.4c-0.4,1-1.2,1.3-2.4,1.3c-0.7,0-2.4-0.1-2.4-1.8V16.9c0-1.5,1.7-1.8,2.4-1.8c2.3,0,2.5,1.4,2.6,3.2
			c0.1,1.5-0.1,3,1.2,3c1,0,2.8-2.9,3.3-3.7c0.4-0.6,1.1-1.5,1.8-2.1c0.7-0.5,1.6-0.5,2.4-0.5c0.7,0,2.2,0,2.2,1
			c0,1.7-5.3,6.3-5.3,8.4c0,1.7,5.6,7.5,5.6,8.9C185.4,34.5,183.4,34.4,183,34.4z"/>
		<path fill="#6C7B7C" d="M187.4,34.4c-0.6,0-0.9-0.4-0.9-0.9c0-0.5,0.4-0.8,0.9-0.8c0.5,0,0.8,0.4,0.8,0.8
			C188.3,34.1,187.9,34.4,187.4,34.4z"/>
	</g>
	<g>
		<g>
			<path fill="#679E42" d="M13.4,34.4c-0.9,0-4.9-0.1-4.9-2.4V17.4c0-2.3,3.7-2.4,4.9-2.4c6.5,0,12,2.1,12,9.7
				C25.5,31.2,22.1,34.4,13.4,34.4z M15.6,19.4c-1.8,0-2.1,2.5-2.1,5.6c0,2.4,0,5,2.1,5c3.1,0,4.6-2.5,4.6-5.3
				C20.2,22.4,19.4,19.4,15.6,19.4z"/>
			<path fill="#679E42" d="M45.8,22.4c0-2.5-1.1-2.9-2.3-3.1c-1.1-0.2-2.1-0.3-2.1-2.1c0-1.8,1.5-2.1,2.2-2.1h9.2
				c1.3,0,2.2,0.7,2.2,2.1c0,1.8-1.1,1.9-2.1,2.1c-1.1,0.2-2.3,0.6-2.3,3.1v10c0,1.7-1.7,2.1-2.5,2.1c-0.8,0-2.4-0.4-2.4-2.1V22.4z"
				/>
			<path fill="#679E42" d="M58.8,34.4c-0.7,0-2.4-0.2-2.4-1.8V16.9c0-1.3,1.7-1.8,2.4-1.8c0.8,0,2.5,0.3,2.5,2v15.4
				C61.3,33.9,59.8,34.4,58.8,34.4z"/>
			<path fill="#679E42" d="M78.8,34.4c-0.7,0-1.7,0-2.3-0.4c-1.1-0.6-1.5-1.4-2-2.3l-1.9-3.1c-0.2-0.4-1.9-3.8-3-3.8
				c-1.1,0-1.2,1.9-1.2,2.3v5.6c0,1.4-1.4,1.8-2.4,1.8c-1.2,0-2.4-0.6-2.4-1.8V17.4c0-0.5,0.3-1.4,0.7-1.7c0.8-0.6,1.5-0.7,2.2-0.7
				c0.5,0,1.6,0,2.3,0.4c1.2,0.7,1.9,2.2,2.5,3.2c0.9,1.5,3,5.9,4.3,5.9c1,0,1.1-1.3,1.1-1.9v-5.5c0-1.5,1.4-2,2.4-2
				c1.7,0,2.4,0.9,2.4,2.3v14.9C81.7,34.3,80,34.4,78.8,34.4z"/>
			<path fill="#679E42" d="M101.9,31.7C100,34,97,35,94,35c-5.5,0-10.4-3-10.4-10.2c0-6.9,4.9-10.3,10.7-10.3c5.8,0,7.6,2.4,7.6,3.9
				c0,1.4-1.6,2-2.9,2c-1.9,0-2.4-1.6-5-1.6c-3.7,0-5.3,3.2-5.3,6.1c0,2.9,1.8,6.3,5.5,6.3c0.6,0,3.9-0.3,3.9-2.5
				c0-2.3-4.2-0.5-4.2-3.3c0-1.7,3.7-1.8,4.7-1.8c2.5,0,5.3,0.1,5.3,2.3C103.9,27.3,103.2,30.1,101.9,31.7z"/>
		</g>
		<path fill="#679E42" d="M40.5,23.9c-0.8-2.2-2.6-7.3-2.6-7.3C37.3,15,35.3,15,34.2,15c-0.9,0-2.2-0.1-2.7,0.4
			c-1.2,1.1-1.3,2-2.7,6l-1.4,4.1c-1,2.8-2.6,7.2-2.6,7.5c0,1.5,1.5,1.4,2.3,1.4c4.6,0,0.9-3.5,7.2-3.5c5.9,0,2.8,3.5,7.2,3.5
			c0.7,0,2.2,0,2.2-1.4C43.6,31.7,40.6,24.4,40.5,23.9z M36.6,25.5l0.5,3.1l-2.8-1.5l-2.8,1.5l0.5-3.1l-2.3-2.2l3.1-0.5l1.4-2.8
			l1.4,2.8l3.1,0.5L36.6,25.5z"/>
		<g>
			<path fill="#679E42" d="M14.1,13.2c-3.3,0-4.8-2-4.8-4.3c0-2.3,1.5-4.3,4.8-4.3c3.3,0,4.8,2,4.8,4.3
				C18.9,11.2,17.5,13.2,14.1,13.2z M14.1,6.7c-1.2,0-1.8,0.9-1.8,2.2c0,1.3,0.6,2.2,1.8,2.2c1.2,0,1.8-0.9,1.8-2.2
				C15.9,7.6,15.3,6.7,14.1,6.7z"/>
			<path fill="#679E42" d="M26.9,12.9c-1,0-1.3-0.6-1.3-1.2V8.6c0-1-0.5-1.7-1.3-1.7c-1.4,0-1.7,1.4-1.7,2.1v2.7
				c0,0.8-0.7,1.2-1.3,1.2c-0.6,0-1.3-0.3-1.3-1.1V6.1c0-0.9,0.9-1.2,1.4-1.2c0.6,0,1.1,0.2,1.8,0.2c0.5,0,1.3-0.5,2.4-0.5
				c2.6,0,2.9,1.8,2.9,3.5v3.5C28.3,12.4,28,12.9,26.9,12.9z"/>
			<path fill="#679E42" d="M30.7,12.9c-0.6,0-1.3-0.5-1.3-1.1V1.7c0-0.8,0.8-1,1.3-1c0.9,0,1.3,0.5,1.3,1.2v9.8
				C32,12.5,31.3,12.9,30.7,12.9z"/>
			<path fill="#679E42" d="M34.6,12.9c-0.9,0-1.3-0.5-1.3-1.2V6.3c0-0.6,0.3-1.4,1.3-1.4c0.8,0,1.3,0.5,1.3,1.4v5.3
				C35.8,12.5,35.3,12.9,34.6,12.9z M34.6,3.1c-0.8,0-1.2-0.7-1.2-1.2c0-0.7,0.4-1.2,1.2-1.2c0.7,0,1.2,0.6,1.2,1.2
				C35.8,2.4,35.3,3.1,34.6,3.1z"/>
			<path fill="#679E42" d="M44,12.9c-1,0-1.3-0.6-1.3-1.2V8.6c0-1-0.5-1.7-1.3-1.7c-1.4,0-1.7,1.4-1.7,2.1v2.7
				c0,0.8-0.7,1.2-1.3,1.2c-0.6,0-1.3-0.3-1.3-1.1V6.1C37,5.3,37.9,5,38.4,5c0.6,0,1.1,0.2,1.8,0.2c0.5,0,1.3-0.5,2.4-0.5
				c2.6,0,2.9,1.8,2.9,3.5v3.5C45.4,12.4,45.1,12.9,44,12.9z"/>
			<path fill="#679E42" d="M53.4,9.6c-0.9,0-2.3-0.1-2.5-0.1c-0.2,0-1.8-0.1-1.8,1c0,0.9,1,1.3,1.7,1.3c1.2,0,1.7-1,2.7-1
				c0.5,0,0.9,0.3,0.9,0.7c0,1.6-2.4,1.8-3.5,1.8c-2.6,0-4.5-1.4-4.5-4.3c0-2.6,1.8-4.4,4.4-4.4c3,0,4.4,2.2,4.4,3.6
				C55.1,9.3,54,9.6,53.4,9.6z M50.7,6.2c-0.8,0-1.3,0.5-1.3,1.1c0,0.8,0.9,0.8,1.4,0.8c0.4,0,1.4-0.1,1.4-0.9
				C52.1,6.7,51.4,6.2,50.7,6.2z"/>
		</g>
	</g>
</g>
<path fill="#6C7B7C" d="M191.6,34.4c-0.3,0-1.7,0-1.7-0.9v-5.3c0-0.8,1.3-0.9,1.8-0.9c2.3,0,4.3,0.8,4.3,3.5
	C195.9,33.3,194.7,34.4,191.6,34.4z M192.4,29c-0.7,0-0.8,0.9-0.8,2c0,0.9,0,1.8,0.8,1.8c1.1,0,1.7-0.9,1.7-1.9
	C194,30.1,193.7,29,192.4,29z"/>
<path fill="#6C7B7C" d="M200.2,34.3c-0.4,0.1-1.1,0.1-1.7,0.1c-0.6,0-1.9,0.1-1.9-0.8v-5.3c0-0.9,1-1,1.1-1h2.2
	c0.6,0,0.7,0.3,0.7,0.7c0,0.5-0.1,0.6-0.5,0.8c-0.5,0.1-1.2,0-1.6,0.4c0,0.1-0.1,0.2-0.1,0.3c0,1.2,1.9,0.1,1.9,1.3
	c0,1.1-2,0.2-2,1.3c0,0.8,1,0.8,1.5,0.8c0.5,0,0.7,0.3,0.7,0.6C200.6,33.9,200.6,34.2,200.2,34.3z"/>
</svg>
