<?xml version="1.0" encoding="utf-8"?>
<!-- Generator: Adobe Illustrator 17.1.0, SVG Export Plug-In . SVG Version: 6.00 Build 0)  -->
<!DOCTYPE svg PUBLIC "-//W3C//DTD SVG 1.1//EN" "http://www.w3.org/Graphics/SVG/1.1/DTD/svg11.dtd">
<svg version="1.1" id="Layer_1" xmlns="http://www.w3.org/2000/svg" xmlns:xlink="http://www.w3.org/1999/xlink" x="0px" y="0px"
	 viewBox="0 0 145 25" enable-background="new 0 0 145 25" xml:space="preserve">
<g>
	<g>
		<path fill="#6C7B7C" d="M81,24.8c-4.8,0-7.1-3.5-7.1-7.3c0-3.8,2.6-7.3,7-7.3c1.4,0,3.7,0.4,3.7,2.4c0,0.7-0.3,1.3-1,1.3
			c-1.2,0-1.2-0.5-2.3-0.5c-2.6,0-3.5,2.3-3.5,4.2c0,2.1,1.3,4,3.7,4c0.9,0,1.2-0.4,2-0.4c0.8,0,1.1,0.7,1.1,1.3
			C84.7,24.6,82.1,24.8,81,24.8z"/>
		<path fill="#6C7B7C" d="M97.7,23.9c-0.5,0.5-0.9,0.5-1.4,0.5c-0.7,0-1.8-0.2-1.8-1.5v-2.7c0-1.7-2-1.6-2.6-1.6
			c-0.8,0-2.6,0.1-2.6,1.6V23c0,1.2-1.3,1.4-1.8,1.4c-0.6,0-1.7-0.1-1.7-1.1V11.7c0-0.9,1.2-1.1,1.7-1.1c0.7,0,1.8,0.2,1.8,1.4v2.2
			c0,1.4,1.8,1.6,2.6,1.6c0.9,0,2.6-0.1,2.6-1.6V12c0-1.2,1.2-1.5,1.8-1.5c0.5,0,1.7,0.2,1.7,1.1v11.5C98,23.3,97.8,23.8,97.7,23.9z
			"/>
		<path fill="#6C7B7C" d="M107,24.2c-0.7,0.2-2.2,0.2-3.4,0.2c-1.2,0-3.8,0.1-3.8-1.5V12.4c0-1.9,2-1.9,2.2-1.9h4.3
			c1.1,0,1.5,0.6,1.5,1.3c0,1-0.2,1.3-1,1.5c-0.9,0.2-2.5-0.1-3.1,0.8c-0.1,0.1-0.2,0.4-0.2,0.6c0,2.4,3.9,0.1,3.9,2.6
			c0,2.2-4,0.3-4,2.7c0,1.7,2,1.6,3,1.6c0.9,0,1.4,0.5,1.4,1.3C107.7,23.4,107.7,24,107,24.2z"/>
		<path fill="#6C7B7C" d="M115.7,24.8c-4.8,0-7.1-3.5-7.1-7.3c0-3.8,2.6-7.3,7-7.3c1.4,0,3.7,0.4,3.7,2.4c0,0.7-0.3,1.3-1,1.3
			c-1.2,0-1.2-0.5-2.3-0.5c-2.6,0-3.5,2.3-3.5,4.2c0,2.1,1.3,4,3.7,4c0.9,0,1.2-0.4,2-0.4c0.8,0,1.1,0.7,1.1,1.3
			C119.3,24.6,116.7,24.8,115.7,24.8z"/>
		<path fill="#6C7B7C" d="M130.1,24.4c-0.5,0-1.1,0-1.7-0.3c-0.5-0.3-1-1.1-1.4-1.6c-0.2-0.2-1.6-2.7-2.3-2.7
			c-0.9,0-0.7,0.9-0.8,1.2c-0.1,0.7,0,1.9-0.2,2.4c-0.3,0.7-0.8,0.9-1.7,0.9c-0.5,0-1.7-0.1-1.7-1.3V11.8c0-1.1,1.2-1.3,1.7-1.3
			c1.6,0,1.8,1,1.8,2.3c0,1.1-0.1,2.2,0.9,2.2c0.7,0,2-2.1,2.4-2.6c0.3-0.4,0.8-1.1,1.3-1.5c0.5-0.3,1.1-0.4,1.7-0.4
			c0.5,0,1.6,0,1.6,0.7c0,1.2-3.8,4.5-3.8,6c0,1.2,4,5.4,4,6.4C131.8,24.5,130.4,24.4,130.1,24.4z"/>
		<path fill="#6C7B7C" d="M133.3,24.4c-0.4,0-0.6-0.3-0.6-0.6c0-0.4,0.3-0.6,0.6-0.6c0.4,0,0.6,0.3,0.6,0.6
			C133.9,24.1,133.6,24.4,133.3,24.4z"/>
	</g>
	<g>
		<g>
			<path fill="#6C7B7C" d="M8.8,24.4c-0.6,0-3.5-0.1-3.5-1.7V12.2c0-1.6,2.6-1.7,3.5-1.7c4.6,0,8.6,1.5,8.6,6.9
				C17.4,22.1,15.1,24.4,8.8,24.4z M10.4,13.7c-1.3,0-1.5,1.8-1.5,4c0,1.7,0,3.6,1.5,3.6c2.2,0,3.3-1.8,3.3-3.8
				C13.7,15.8,13.1,13.7,10.4,13.7z"/>
			<path fill="#6C7B7C" d="M32,15.8c0-1.8-0.8-2.1-1.6-2.2c-0.8-0.1-1.5-0.2-1.5-1.5c0-1.3,1.1-1.5,1.6-1.5H37c1,0,1.6,0.5,1.6,1.5
				c0,1.3-0.8,1.4-1.5,1.5c-0.8,0.2-1.6,0.4-1.6,2.2v7.1c0,1.2-1.2,1.5-1.8,1.5c-0.6,0-1.7-0.3-1.7-1.5V15.8z"/>
			<path fill="#6C7B7C" d="M41.3,24.4c-0.5,0-1.7-0.1-1.7-1.3V11.8c0-1,1.2-1.3,1.7-1.3c0.6,0,1.8,0.2,1.8,1.4v11
				C43,24,42,24.4,41.3,24.4z"/>
			<path fill="#6C7B7C" d="M55.6,24.4c-0.5,0-1.2,0-1.6-0.3c-0.8-0.4-1-1-1.4-1.7l-1.3-2.3c-0.2-0.3-1.4-2.7-2.2-2.7
				c-0.8,0-0.8,1.4-0.8,1.7v4c0,1-1,1.3-1.7,1.3c-0.9,0-1.7-0.4-1.7-1.3V12.2c0-0.4,0.2-1,0.5-1.2c0.6-0.4,1-0.5,1.6-0.5
				c0.4,0,1.1,0,1.7,0.3c0.8,0.5,1.4,1.6,1.8,2.3c0.7,1.1,2.1,4.2,3.1,4.2c0.7,0,0.8-1,0.8-1.4V12c0-1.1,1-1.5,1.7-1.5
				c1.2,0,1.7,0.6,1.7,1.6v10.7C57.7,24.3,56.4,24.4,55.6,24.4z"/>
			<path fill="#6C7B7C" d="M72.1,22.4c-1.4,1.6-3.5,2.4-5.6,2.4c-4,0-7.4-2.2-7.4-7.3c0-4.9,3.5-7.4,7.6-7.4c4.1,0,5.4,1.7,5.4,2.8
				c0,1-1.1,1.4-2.1,1.4c-1.4,0-1.7-1.2-3.5-1.2c-2.6,0-3.8,2.3-3.8,4.3c0,2.1,1.3,4.5,3.9,4.5c0.4,0,2.8-0.2,2.8-1.8
				c0-1.7-3-0.3-3-2.4c0-1.2,2.6-1.3,3.4-1.3c1.8,0,3.8,0.1,3.8,1.6C73.5,19.3,73,21.3,72.1,22.4z"/>
		</g>
		<path fill="#6C7B7C" d="M28.2,16.8c-0.5-1.6-1.9-5.2-1.9-5.2c-0.4-1.2-1.8-1.1-2.6-1.1c-0.6,0-1.6,0-1.9,0.3c-0.9,0.8-1,1.5-2,4.3
			l-1,2.9c-0.7,2-1.8,5.2-1.8,5.4c0,1,1,1,1.6,1c3.3,0,0.6-2.5,5.1-2.5c4.2,0,2,2.5,5.1,2.5c0.5,0,1.6,0,1.6-1
			C30.4,22.5,28.3,17.2,28.2,16.8z M25.4,18l0.4,2.2l-2-1l-2,1l0.4-2.2l-1.6-1.6l2.2-0.3l1-2l1,2l2.2,0.3L25.4,18z"/>
		<g>
			<path fill="#6C7B7C" d="M9.4,9.2C7,9.2,5.9,7.8,5.9,6.1c0-1.6,1.1-3.1,3.4-3.1c2.4,0,3.4,1.5,3.4,3.1C12.8,7.8,11.7,9.2,9.4,9.2z
				 M9.4,4.6c-0.8,0-1.3,0.6-1.3,1.6c0,1,0.5,1.6,1.3,1.6c0.8,0,1.3-0.6,1.3-1.6C10.6,5.2,10.2,4.6,9.4,4.6z"/>
			<path fill="#6C7B7C" d="M18.5,9c-0.7,0-1-0.5-1-0.9V5.9c0-0.7-0.4-1.2-1-1.2c-1,0-1.2,1-1.2,1.5v1.9c0,0.5-0.5,0.9-1,0.9
				c-0.4,0-1-0.2-1-0.8V4.2c0-0.6,0.7-0.8,1-0.8c0.4,0,0.8,0.1,1.3,0.1c0.4,0,1-0.4,1.7-0.4c1.9,0,2,1.3,2,2.5v2.5
				C19.5,8.6,19.2,9,18.5,9z"/>
			<path fill="#6C7B7C" d="M21.2,9c-0.4,0-0.9-0.3-0.9-0.8V1c0-0.5,0.5-0.7,0.9-0.7c0.6,0,1,0.4,1,0.8v7C22.1,8.7,21.6,9,21.2,9z"/>
			<path fill="#6C7B7C" d="M23.9,9c-0.6,0-1-0.4-1-0.9V4.3c0-0.5,0.2-1,0.9-1c0.6,0,0.9,0.3,0.9,1v3.8C24.8,8.7,24.5,9,23.9,9z
				 M23.9,2c-0.6,0-0.9-0.5-0.9-0.9c0-0.5,0.3-0.9,0.9-0.9c0.5,0,0.9,0.4,0.9,0.9C24.8,1.5,24.5,2,23.9,2z"/>
			<path fill="#6C7B7C" d="M30.7,9c-0.7,0-1-0.5-1-0.9V5.9c0-0.7-0.4-1.2-1-1.2c-1,0-1.2,1-1.2,1.5v1.9c0,0.5-0.5,0.9-1,0.9
				c-0.4,0-1-0.2-1-0.8V4.2c0-0.6,0.7-0.8,1-0.8c0.4,0,0.8,0.1,1.3,0.1c0.4,0,1-0.4,1.7-0.4c1.9,0,2,1.3,2,2.5v2.5
				C31.7,8.6,31.5,9,30.7,9z"/>
			<path fill="#6C7B7C" d="M37.4,6.6c-0.6,0-1.6-0.1-1.8-0.1c-0.2,0-1.3-0.1-1.3,0.7c0,0.6,0.7,0.9,1.2,0.9c0.9,0,1.2-0.7,1.9-0.7
				c0.4,0,0.6,0.2,0.6,0.5c0,1.2-1.7,1.3-2.5,1.3c-1.9,0-3.2-1-3.2-3.1c0-1.8,1.3-3.1,3.2-3.1c2.2,0,3.1,1.6,3.1,2.6
				C38.6,6.4,37.9,6.6,37.4,6.6z M35.5,4.2c-0.5,0-1,0.3-1,0.8c0,0.5,0.7,0.6,1,0.6c0.3,0,1,0,1-0.6C36.5,4.5,36,4.2,35.5,4.2z"/>
		</g>
	</g>
</g>
<path fill="#6C7B7C" d="M136.2,24.2c-0.2,0-1.3,0-1.3-0.6v-3.9c0-0.6,1-0.6,1.3-0.6c1.7,0,3.2,0.6,3.2,2.6
	C139.4,23.4,138.5,24.2,136.2,24.2z M136.8,20.3c-0.5,0-0.6,0.7-0.6,1.5c0,0.6,0,1.3,0.6,1.3c0.8,0,1.2-0.7,1.2-1.4
	C138,21.1,137.8,20.3,136.8,20.3z"/>
<path fill="#6C7B7C" d="M142.5,24.2c-0.3,0.1-0.8,0.1-1.3,0.1c-0.4,0-1.4,0-1.4-0.6v-3.9c0-0.7,0.8-0.7,0.8-0.7h1.6
	c0.4,0,0.5,0.2,0.5,0.5c0,0.4-0.1,0.5-0.4,0.6c-0.3,0.1-0.9,0-1.2,0.3c0,0-0.1,0.2-0.1,0.2c0,0.9,1.4,0.1,1.4,1c0,0.8-1.5,0.1-1.5,1
	c0,0.6,0.7,0.6,1.1,0.6c0.3,0,0.5,0.2,0.5,0.5C142.8,23.9,142.8,24.1,142.5,24.2z"/>
</svg>
